<svg width="121" height="26" viewBox="0 0 121 26" fill="none" xmlns="http://www.w3.org/2000/svg">
<g opacity="1">
<rect x="28.8679" y="3.39621" width="1.13208" height="22.0755" fill="white"/>
<path d="M30 23.2076L19.3267 23.6807C17.9697 23.7408 16.6734 24.2596 15.6495 25.1522L15.283 25.4717H30V23.2076Z" fill="white"/>
<path d="M27.7359 0H19.2831C17.0739 0 15.2831 1.79086 15.2831 4V21.6415C15.2831 22.1938 15.7308 22.6415 16.2831 22.6415H27.7359V0Z" fill="white"/>
<rect width="1.13208" height="22.0755" transform="matrix(-1 0 0 1 1.13214 3.39621)" fill="white"/>
<path d="M0 23.2076L10.6733 23.6807C12.0303 23.7408 13.3266 24.2596 14.3505 25.1522L14.717 25.4717H0V23.2076Z" fill="white"/>
<path d="M2.2641 0H10.7169C12.9261 0 14.7169 1.79086 14.7169 4V21.6415C14.7169 22.1938 14.2692 22.6415 13.7169 22.6415H2.2641V0Z" fill="white"/>
<path d="M36.134 19V6.4H42.056C42.908 6.4 43.652 6.544 44.288 6.832C44.924 7.12 45.422 7.528 45.782 8.056C46.142 8.572 46.322 9.172 46.322 9.856C46.322 10.408 46.178 10.918 45.89 11.386C45.614 11.842 45.236 12.214 44.756 12.502C45.368 12.79 45.854 13.18 46.214 13.672C46.574 14.164 46.754 14.722 46.754 15.346C46.754 16.066 46.568 16.702 46.196 17.254C45.836 17.806 45.32 18.238 44.648 18.55C43.988 18.85 43.22 19 42.344 19H36.134ZM38.744 11.548H41.894C42.458 11.548 42.902 11.416 43.226 11.152C43.562 10.876 43.73 10.51 43.73 10.054C43.73 9.598 43.562 9.238 43.226 8.974C42.902 8.698 42.458 8.56 41.894 8.56H38.744V11.548ZM38.744 16.84H42.146C42.746 16.84 43.226 16.696 43.586 16.408C43.946 16.108 44.126 15.712 44.126 15.22C44.126 14.716 43.946 14.32 43.586 14.032C43.226 13.732 42.746 13.582 42.146 13.582H38.744V16.84ZM48.4173 19V9.622H50.8833V19H48.4173ZM49.6413 8.506C49.2573 8.506 48.9273 8.368 48.6513 8.092C48.3753 7.816 48.2373 7.486 48.2373 7.102C48.2373 6.706 48.3753 6.376 48.6513 6.112C48.9273 5.836 49.2573 5.698 49.6413 5.698C50.0373 5.698 50.3673 5.836 50.6313 6.112C50.9073 6.376 51.0453 6.706 51.0453 7.102C51.0453 7.486 50.9073 7.816 50.6313 8.092C50.3673 8.368 50.0373 8.506 49.6413 8.506ZM52.8118 19V6.4L55.2778 5.986V10.378C56.0218 9.79 56.8978 9.496 57.9058 9.496C58.7938 9.496 59.5978 9.712 60.3178 10.144C61.0378 10.576 61.6078 11.158 62.0278 11.89C62.4598 12.61 62.6758 13.42 62.6758 14.32C62.6758 15.22 62.4598 16.036 62.0278 16.768C61.5958 17.488 61.0138 18.064 60.2818 18.496C59.5498 18.916 58.7338 19.126 57.8338 19.126C57.3658 19.126 56.9098 19.06 56.4658 18.928C56.0218 18.796 55.6138 18.604 55.2418 18.352V19H52.8118ZM57.5098 17.038C58.0258 17.038 58.4878 16.918 58.8958 16.678C59.3158 16.438 59.6458 16.114 59.8858 15.706C60.1258 15.298 60.2458 14.836 60.2458 14.32C60.2458 13.804 60.1258 13.342 59.8858 12.934C59.6458 12.514 59.3158 12.19 58.8958 11.962C58.4878 11.722 58.0258 11.602 57.5098 11.602C57.0538 11.602 56.6338 11.68 56.2498 11.836C55.8778 11.98 55.5538 12.202 55.2778 12.502V16.156C55.5418 16.432 55.8658 16.648 56.2498 16.804C56.6458 16.96 57.0658 17.038 57.5098 17.038ZM64.1673 19V6.4L66.6333 5.986V19H64.1673ZM68.5618 19V9.622H71.0278V19H68.5618ZM69.7858 8.506C69.4018 8.506 69.0718 8.368 68.7958 8.092C68.5198 7.816 68.3818 7.486 68.3818 7.102C68.3818 6.706 68.5198 6.376 68.7958 6.112C69.0718 5.836 69.4018 5.698 69.7858 5.698C70.1818 5.698 70.5118 5.836 70.7758 6.112C71.0518 6.376 71.1898 6.706 71.1898 7.102C71.1898 7.486 71.0518 7.816 70.7758 8.092C70.5118 8.368 70.1818 8.506 69.7858 8.506ZM77.5284 19.18C76.5924 19.18 75.7464 18.964 74.9904 18.532C74.2344 18.1 73.6344 17.518 73.1904 16.786C72.7464 16.054 72.5244 15.232 72.5244 14.32C72.5244 13.408 72.7404 12.586 73.1724 11.854C73.6164 11.11 74.2164 10.522 74.9724 10.09C75.7404 9.658 76.5924 9.442 77.5284 9.442C78.4644 9.442 79.3104 9.658 80.0664 10.09C80.8344 10.522 81.4344 11.11 81.8664 11.854C82.3104 12.586 82.5324 13.408 82.5324 14.32C82.5324 15.232 82.3104 16.054 81.8664 16.786C81.4344 17.518 80.8404 18.1 80.0844 18.532C79.3284 18.964 78.4764 19.18 77.5284 19.18ZM77.5284 17.038C78.0204 17.038 78.4584 16.918 78.8424 16.678C79.2384 16.438 79.5504 16.114 79.7784 15.706C80.0184 15.286 80.1384 14.824 80.1384 14.32C80.1384 13.804 80.0184 13.342 79.7784 12.934C79.5504 12.526 79.2384 12.202 78.8424 11.962C78.4584 11.71 78.0204 11.584 77.5284 11.584C77.0484 11.584 76.6104 11.71 76.2144 11.962C75.8184 12.202 75.5064 12.526 75.2784 12.934C75.0504 13.342 74.9364 13.804 74.9364 14.32C74.9364 14.824 75.0504 15.286 75.2784 15.706C75.5064 16.114 75.8184 16.438 76.2144 16.678C76.6104 16.918 77.0484 17.038 77.5284 17.038ZM88.125 19.144C87.081 19.144 86.289 18.91 85.749 18.442C85.221 17.962 84.957 17.266 84.957 16.354V11.674H83.031V9.622H84.957V7.228L87.423 6.67V9.622H90.105V11.674H87.423V15.85C87.423 16.282 87.519 16.594 87.711 16.786C87.903 16.966 88.239 17.056 88.719 17.056C88.959 17.056 89.175 17.044 89.367 17.02C89.571 16.984 89.793 16.924 90.033 16.84V18.874C89.781 18.958 89.463 19.024 89.079 19.072C88.707 19.12 88.389 19.144 88.125 19.144ZM95.7925 19.18C94.8565 19.18 94.0045 18.964 93.2365 18.532C92.4805 18.1 91.8805 17.518 91.4365 16.786C90.9925 16.054 90.7705 15.232 90.7705 14.32C90.7705 13.408 90.9805 12.586 91.4005 11.854C91.8325 11.122 92.4145 10.54 93.1465 10.108C93.8785 9.676 94.6945 9.46 95.5945 9.46C96.4945 9.46 97.2925 9.682 97.9885 10.126C98.6845 10.57 99.2305 11.17 99.6265 11.926C100.034 12.682 100.238 13.54 100.238 14.5V15.148H93.2905C93.3985 15.52 93.5725 15.856 93.8125 16.156C94.0645 16.456 94.3705 16.69 94.7305 16.858C95.1025 17.026 95.4985 17.11 95.9185 17.11C96.3385 17.11 96.7225 17.044 97.0705 16.912C97.4305 16.78 97.7365 16.594 97.9885 16.354L99.6085 17.83C99.0325 18.298 98.4385 18.64 97.8265 18.856C97.2265 19.072 96.5485 19.18 95.7925 19.18ZM93.2545 13.384H97.8085C97.7245 13.012 97.5685 12.688 97.3405 12.412C97.1245 12.124 96.8605 11.902 96.5485 11.746C96.2485 11.578 95.9125 11.494 95.5405 11.494C95.1565 11.494 94.8085 11.572 94.4965 11.728C94.1845 11.884 93.9205 12.106 93.7045 12.394C93.5005 12.67 93.3505 13 93.2545 13.384ZM106.302 19.18C105.378 19.18 104.544 18.97 103.8 18.55C103.056 18.118 102.468 17.536 102.036 16.804C101.604 16.06 101.388 15.232 101.388 14.32C101.388 13.396 101.604 12.568 102.036 11.836C102.468 11.104 103.056 10.522 103.8 10.09C104.544 9.658 105.378 9.442 106.302 9.442C107.046 9.442 107.754 9.586 108.426 9.874C109.11 10.162 109.698 10.576 110.19 11.116L108.678 12.718C108.33 12.334 107.964 12.052 107.58 11.872C107.208 11.68 106.8 11.584 106.356 11.584C105.876 11.584 105.444 11.704 105.06 11.944C104.688 12.184 104.388 12.508 104.16 12.916C103.944 13.324 103.836 13.792 103.836 14.32C103.836 14.824 103.944 15.286 104.16 15.706C104.388 16.114 104.7 16.438 105.096 16.678C105.492 16.906 105.93 17.02 106.41 17.02C106.83 17.02 107.22 16.936 107.58 16.768C107.952 16.588 108.306 16.324 108.642 15.976L110.118 17.524C109.638 18.04 109.062 18.448 108.39 18.748C107.718 19.036 107.022 19.18 106.302 19.18ZM114.388 19.162C113.716 19.162 113.122 19.042 112.606 18.802C112.09 18.55 111.688 18.208 111.4 17.776C111.112 17.344 110.968 16.846 110.968 16.282C110.968 15.382 111.304 14.686 111.976 14.194C112.66 13.69 113.596 13.438 114.784 13.438C115.6 13.438 116.368 13.564 117.088 13.816V13.132C117.088 12.592 116.92 12.184 116.584 11.908C116.248 11.632 115.756 11.494 115.108 11.494C114.712 11.494 114.286 11.56 113.83 11.692C113.374 11.812 112.846 12.004 112.246 12.268L111.346 10.45C112.09 10.114 112.798 9.862 113.47 9.694C114.154 9.526 114.838 9.442 115.522 9.442C116.782 9.442 117.76 9.748 118.456 10.36C119.164 10.96 119.518 11.812 119.518 12.916V19H117.088V18.334C116.704 18.622 116.29 18.832 115.846 18.964C115.402 19.096 114.916 19.162 114.388 19.162ZM113.308 16.228C113.308 16.588 113.464 16.876 113.776 17.092C114.088 17.296 114.502 17.398 115.018 17.398C115.426 17.398 115.804 17.35 116.152 17.254C116.5 17.146 116.812 16.99 117.088 16.786V15.418C116.788 15.298 116.476 15.208 116.152 15.148C115.828 15.088 115.48 15.058 115.108 15.058C114.544 15.058 114.1 15.166 113.776 15.382C113.464 15.586 113.308 15.868 113.308 16.228Z" fill="white"/>
</g>
</svg>
